<svg width="24" height="23" viewBox="0 0 24 23" fill="none" xmlns="http://www.w3.org/2000/svg">
<path d="M9 21.0833H15C20 21.0833 22 19.1667 22 14.375V8.62499C22 3.83332 20 1.91666 15 1.91666H9C4 1.91666 2 3.83332 2 8.62499V14.375C2 19.1667 4 21.0833 9 21.0833Z" stroke="black" stroke-width="1.5" stroke-linecap="round" stroke-linejoin="round"/>
<path d="M16.2802 13.0429C15.1502 14.1258 13.5302 14.4613 12.1002 14.03L9.5102 16.5025C9.3302 16.6846 8.9602 16.7996 8.6902 16.7613L7.4902 16.6079C7.0902 16.56 6.7302 16.1958 6.6702 15.8221L6.5102 14.6721C6.4702 14.4229 6.6002 14.0683 6.7802 13.8863L9.3602 11.4138C8.9202 10.0433 9.2602 8.49085 10.3902 7.40794C12.0102 5.85544 14.6502 5.85544 16.2802 7.40794C17.9002 8.95085 17.9002 11.4808 16.2802 13.0429Z" stroke="black" stroke-width="1.5" stroke-miterlimit="10" stroke-linecap="round" stroke-linejoin="round"/>
<path d="M10.4501 15.6017L9.6001 14.7775" stroke="black" stroke-width="1.5" stroke-miterlimit="10" stroke-linecap="round" stroke-linejoin="round"/>
<path d="M13.3945 10.2542H13.4038" stroke="black" stroke-width="2" stroke-linecap="round" stroke-linejoin="round"/>
</svg>
