<svg width="22" height="24" viewBox="0 0 22 24" fill="none" xmlns="http://www.w3.org/2000/svg">
<path d="M18 3.375H14.2292C13.6316 2.19794 12.4181 1.375 11 1.375C9.58186 1.375 8.36839 2.19794 7.77083 3.375H4C2.55482 3.375 1.375 4.55482 1.375 6V20C1.375 21.4452 2.55482 22.625 4 22.625H18C19.4452 22.625 20.625 21.4452 20.625 20V6C20.625 4.55482 19.4452 3.375 18 3.375ZM11 4.625C11.2048 4.625 11.375 4.79518 11.375 5C11.375 5.20482 11.2048 5.375 11 5.375C10.7952 5.375 10.625 5.20482 10.625 5C10.625 4.79518 10.7952 4.625 11 4.625ZM12.375 17.375H6.625V16.625H12.375V17.375ZM15.375 13.375H6.625V12.625H15.375V13.375ZM15.375 9.375H6.625V8.625H15.375V9.375Z" stroke="#000" stroke-width="1.25"/>
</svg>
